<?xml version="1.0" encoding="UTF-8" standalone="no"?>
<!-- Created with Inkscape (http://www.inkscape.org/) -->

<svg
   xmlns:dc="http://purl.org/dc/elements/1.1/"
   xmlns:cc="http://creativecommons.org/ns#"
   xmlns:rdf="http://www.w3.org/1999/02/22-rdf-syntax-ns#"
   xmlns:svg="http://www.w3.org/2000/svg"
   xmlns="http://www.w3.org/2000/svg"
   xmlns:sodipodi="http://sodipodi.sourceforge.net/DTD/sodipodi-0.dtd"
   xmlns:inkscape="http://www.inkscape.org/namespaces/inkscape"
   width="744.09448819"
   height="1052.3622047"
   id="svg2"
   version="1.1"
   inkscape:version="0.48.5 r10040"
   sodipodi:docname="Dokumen baru 1">
  <defs
     id="defs4">
    <clipPath
       clipPathUnits="userSpaceOnUse"
       id="clipPath3040">
      <path
         sodipodi:type="arc"
         style="fill:#999999;fill-opacity:1;stroke:none"
         id="path3042"
         sodipodi:cx="216.78572"
         sodipodi:cy="518.25507"
         sodipodi:rx="27.5"
         sodipodi:ry="33.392857"
         d="m 244.28572,518.25507 a 27.5,33.392857 0 1 1 -55,0 27.5,33.392857 0 1 1 55,0 z"
         transform="matrix(2.1298701,0,0,1.7540107,-178.15399,-358.44846)" />
    </clipPath>
  </defs>
  <sodipodi:namedview
     id="base"
     pagecolor="#ffffff"
     bordercolor="#666666"
     borderopacity="1.0"
     inkscape:pageopacity="0.0"
     inkscape:pageshadow="2"
     inkscape:zoom="1.4263088"
     inkscape:cx="314.77322"
     inkscape:cy="597.40029"
     inkscape:document-units="px"
     inkscape:current-layer="layer1"
     showgrid="false"
     inkscape:window-width="1440"
     inkscape:window-height="850"
     inkscape:window-x="0"
     inkscape:window-y="24"
     inkscape:window-maximized="1" />
  <metadata
     id="metadata7">
    <rdf:RDF>
      <cc:Work
         rdf:about="">
        <dc:format>image/svg+xml</dc:format>
        <dc:type
           rdf:resource="http://purl.org/dc/dcmitype/StillImage" />
        <dc:title></dc:title>
      </cc:Work>
    </rdf:RDF>
  </metadata>
  <g
     inkscape:label="Layer 1"
     inkscape:groupmode="layer"
     id="layer1">
    <path
       inkscape:connector-curvature="0"
       id="path3022"
       d="m 268.89268,608.44588 c -10.89668,-2.85475 -18.6928,-7.40923 -27.29247,-15.94419 -5.57358,-5.53164 -8.56669,-9.52672 -11.26321,-15.03365 -3.49257,-7.13265 -6.65809,-18.32128 -5.5087,-19.47067 0.29503,-0.29502 6.06299,-0.0849 12.81768,0.46699 l 12.28127,1.00341 3.41666,-2.99987 c 5.12061,-4.49596 8.38315,-4.07096 14.13622,1.84145 11.01112,11.3161 14.79695,15.88219 16.21084,19.55189 0.825,2.14127 2.22633,4.35038 3.11408,4.90915 2.27246,1.43035 4.88592,0.15763 4.88592,-2.37937 0,-1.72204 0.4409,-2.02914 2.25831,-1.573 2.81035,0.70536 4.26342,-0.18157 5.19725,-3.1723 0.48357,-1.54871 1.23693,-2.12592 2.26153,-1.73275 2.13246,0.8183 4.28291,-1.22393 4.28291,-4.06737 0,-1.81426 0.54492,-2.37756 2.3,-2.37756 2.35423,0 4.7,-1.66435 4.7,-3.3347 0,-1.70929 -18.33916,-19.6653 -20.08492,-19.6653 -0.94407,0 -4.12367,1.1206 -7.06578,2.49023 -6.52748,3.0387 -8.80358,3.12017 -12.21444,0.43719 -2.04741,-1.61049 -2.63486,-2.94822 -2.63486,-6 0,-4.49884 1.53527,-6.39868 8.44139,-10.44594 5.19247,-3.04299 5.38873,-4.52515 0.77442,-5.84852 -2.63355,-0.75529 -4.35846,-0.30705 -10.92165,2.83815 l -7.79416,3.73509 -15.76558,0.0813 c -11.19949,0.0578 -16.12024,-0.27335 -16.99015,-1.14326 -0.9661,-0.9661 -0.49928,-2.64084 2.21164,-7.93442 4.40785,-8.60715 16.22557,-20.56246 24.73014,-25.01805 23.08872,-12.09633 50.37236,-8.3779 69.29787,9.44446 6.39323,6.02056 14.01608,17.17372 14.01608,20.5072 0,1.32678 -2.36292,2.24305 -11.01874,4.27276 -6.06031,1.42108 -11.87387,2.58378 -12.91904,2.58378 -1.04516,0 -4.52422,-2.246 -7.73125,-4.99111 -3.20704,-2.74512 -6.74556,-4.99512 -7.86339,-5 -1.11783,-0.005 -7.08255,2.9591 -13.25493,6.58665 -11.57033,6.79995 -13.97633,9.57443 -11.20187,12.91745 1.86486,2.24702 4.36279,1.82762 11.98922,-2.01299 3.82254,-1.925 7.47654,-3.5 8.12,-3.5 0.64347,0 5.74286,4.5 11.33199,10 11.76584,11.5782 11.04462,11.37676 27.04797,7.5548 5.49998,-1.31352 10.19088,-2.19729 10.42423,-1.96394 1.09119,1.09119 -3.29269,16.7025 -6.57362,23.40914 -4.57276,9.34731 -15.89574,21.01924 -25.03662,25.8082 -13.23116,6.93189 -29.1154,8.83659 -43.11224,5.16964 z m 8.45115,-24.44725 c 4.0773,-2.85585 3.58255,-5.15193 -2.48962,-11.55411 -3.11478,-3.28406 -7.46324,-7.9898 -9.66324,-10.45719 -4.62762,-5.19007 -6.53602,-5.56025 -9.46546,-1.83607 -2.53605,3.22406 -2.30322,5.47347 0.70346,6.79623 1.22448,0.53869 2.66094,2.22619 3.19214,3.75 0.5312,1.5238 1.67537,2.77055 2.54259,2.77055 0.86722,0 1.98986,1.08649 2.49474,2.41443 0.50488,1.32794 1.84374,2.70826 2.97525,3.06739 1.1315,0.35913 2.05728,1.26549 2.05728,2.01414 0,1.68531 2.72165,4.50404 4.34892,4.50404 0.66334,0 2.15011,-0.66123 3.30394,-1.46941 z"
       style="fill:#b1f6cb;fill-opacity:1"
       clip-path="url(#clipPath3040)"
       transform="translate(313.52365,-4.9851324)"
       inkscape:export-filename="/home/herpiko/reason-trusted.png"
       inkscape:export-xdpi="96.040001"
       inkscape:export-ydpi="96.040001" />
    <path
       style="fill:#b1f6cb;fill-opacity:1;stroke:none"
       d="m 409.81852,489.53791 c -12.46884,2.24826 -23.55209,8.4483 -31.9375,17.25 7.14704,-0.0695 12.78125,0.14643 12.78125,0.53125 0,0.42385 -2.44057,2.47089 -5.4375,4.53125 -5.23133,3.59649 -5.68099,3.70925 -14.40625,3.96875 -0.84263,1.32723 -1.63908,2.69695 -2.375,4.09375 6.97173,0.14358 7.47807,0.9773 5.46875,5.25 l -1.75,3.71875 -7.59375,0.1875 c -1.85191,5.70232 -2.84375,11.77402 -2.84375,18.09375 0,32.34811 26.21439,58.5625 58.5625,58.5625 6.15939,0 12.07973,-0.95601 17.65625,-2.71875 -0.42333,-0.17526 -0.86261,-0.34393 -1.34375,-0.5625 -2.38303,-1.08257 -5.29553,-3.7288 -7.8125,-7.0625 -4.95229,-6.55926 -10.25575,-9.74312 -19.28125,-11.625 -3.81922,-0.79633 -7.48833,-1.91444 -8.15625,-2.46875 -2.00595,-1.6648 -1.3869,-5.02253 1.625,-8.8125 1.56361,-1.96756 2.84375,-4.17688 2.84375,-4.875 0,-1.96313 -3.69652,-3.84615 -9.9375,-5.09375 -7.31752,-1.46282 -11.75054,-3.31327 -14.71875,-6.15625 -2.16847,-2.077 -2.72217,-2.20051 -6.34375,-1.28125 -3.32632,0.84431 -4.54583,0.72558 -7.5625,-0.75 -4.6891,-2.29362 -5.959,-5.71748 -3.8125,-10.21875 2.12709,-4.46055 7.54116,-6.23987 12.09375,-3.96875 4.2851,2.1377 4.49828,2.03251 5.71875,-2.5 1.73127,-6.4294 4.26946,-10.64102 8.9375,-14.75 8.58335,-7.55537 18.64847,-8.68021 34.28125,-3.90625 10.61571,3.24185 13.22211,2.9423 16.03125,-1.6875 0.88378,-1.45657 2.42777,-3.84343 3.4375,-5.3125 2.42042,-3.5215 1.65444,-5.0709 -3.625,-7.40625 -3.71719,-1.64428 -6.0408,-1.90672 -15.40625,-1.71875 -21.08336,0.42314 -24.78125,-0.23912 -24.78125,-4.40625 0,-3.10135 3.55,-5.1339 10.125,-5.8125 l 5.5,-0.5625 -3.78125,-1.625 -2.15625,-0.90625 z m 22.28125,0.25 c 5.77907,1.57644 10.82703,3.91428 13.125,6.53125 1.27568,1.45278 1.40878,1.90974 0.40625,1.5 -0.78181,-0.31952 -4.1519,-1.7166 -7.46875,-3.09375 -4.18943,-1.73945 -8.22294,-2.6258 -13.25,-2.875 -6.316,-0.31309 -6.66772,-0.2274 -2.75,0.5 10.55538,1.95981 18.11924,5.20911 24.5625,10.5625 2.43893,2.02638 5.47354,3.6875 6.71875,3.6875 4.83771,0 9.64754,1.95302 13.375,5.03125 -8.42268,-11.00982 -20.63782,-18.96237 -34.71875,-21.84375 z m 34.625,29.78125 c -0.44794,0.0203 -0.91124,0.14353 -1.34375,0.375 -1.76054,0.9422 -2.37304,3.75195 -1.09375,5.03125 1.34813,1.34814 5.49235,0.13145 5.84375,-1.71875 0.38809,-2.04344 -1.46517,-3.77557 -3.40625,-3.6875 z m 6.8125,3.21875 c 0.77668,4.6842 0.0623,10.25021 -1.6875,12 -2.72163,2.72163 -11.92738,2.63572 -18.8125,-0.1875 -1.3317,-0.54606 -1.68477,0.19422 -2.25,4.84375 -0.95286,7.83839 -3.54146,15.70774 -6.9375,21 -3.27867,5.10938 -7.4171,9.30166 -8.28125,8.4375 -0.31356,-0.31356 -0.10336,-2.7386 0.46875,-5.40625 2.24764,-10.48038 0.87772,-16.43304 -5,-21.59375 -5.28757,-4.64254 -6.71321,-3.90886 -3.03125,1.5625 6.40038,9.51093 5.22843,19.23109 -3.4375,28.21875 -3.53149,3.66262 -4.08775,6.00926 -1.40625,6.03125 2.48235,0.0204 11.09567,4.75163 14.90625,8.1875 4.63348,4.17785 7.62349,10.13722 7.53125,14.09375 19.66514,-9.44673 33.25,-29.53755 33.25,-52.8125 0,-8.69649 -1.91243,-16.95438 -5.3125,-24.375 z"
       id="path3038"
       inkscape:connector-curvature="0"
       inkscape:export-filename="/home/herpiko/reason-fast.png"
       inkscape:export-xdpi="96.050003"
       inkscape:export-ydpi="96.050003" />
    <path
       style="fill:#b1f6cb;fill-opacity:1;stroke:none"
       d="m 251.70279,484.77717 c -32.34811,0 -58.5625,26.24564 -58.5625,58.59375 0,32.34811 26.21439,58.5625 58.5625,58.5625 12.68418,0 24.41097,-4.05409 34,-10.90625 -0.37455,-0.16017 -0.74913,-0.33216 -1.1875,-0.53125 -3.65556,-1.66023 -4.03269,-2.07756 -4.5,-5 -0.47041,-2.94171 -0.15628,-3.76966 3.84375,-9.90625 5.90038,-9.05198 7.6583,-13.25129 7.03125,-16.59375 -0.43471,-2.31722 -0.25693,-2.65625 1.125,-2.65625 4.92423,0 1.71867,10.64491 -7.125,23.6875 -1.66531,2.45598 -3.03125,4.67449 -3.03125,4.9375 0,0.26301 1.97305,1.34399 4.375,2.40625 1.09324,0.48348 1.92006,0.91791 2.5625,1.3125 13.10637,-10.74149 21.46875,-27.04463 21.46875,-45.3125 0,-32.34811 -26.21439,-58.59375 -58.5625,-58.59375 z m -21.03125,6.5 c 0.6665,0 7.29355,13.70747 7.28125,15.0625 -0.003,0.32343 -0.37037,0.625 -0.8125,0.625 -0.44212,0 -2.02099,-2.71722 -3.53125,-6.03125 -3.13161,-6.8719 -3.98443,-9.65625 -2.9375,-9.65625 z m 16.15625,3.96875 c 0.79831,-0.10283 0.54516,0.90149 -0.90625,5.75 -0.76548,2.55708 -1.7901,4.82586 -2.3125,5 -1.23749,0.41249 -1.19001,-0.11509 0.46875,-5.65625 0.76548,-2.55707 1.82135,-4.79462 2.34375,-4.96875 0.15469,-0.0516 0.2922,-0.1103 0.40625,-0.125 z m 9.09375,7 c 1.63198,0 0.78558,1.46427 -2.21875,3.84375 -3.01185,2.38542 -4.78125,3.05618 -4.78125,1.78125 0,-0.858 5.92963,-5.625 7,-5.625 z m -31.90625,3.15625 c 1.44106,0.0219 8.4375,4.55458 8.4375,5.46875 0,1.31567 -1.78754,0.78792 -5.6875,-1.6875 -3.6293,-2.30362 -4.73075,-3.81135 -2.75,-3.78125 z m 22.0625,5.5 c 2.96892,-0.0752 4.45196,2.26324 7.53125,9.3125 l 3.53125,8.09375 7.8125,4.40625 c 10.55656,5.95652 15.58332,10.84434 17.3125,16.84375 0.94588,3.28172 2.18584,5.438 4.375,7.5625 3.27391,3.17722 3.83851,4.71875 1.75,4.71875 -2.54106,0 -7.24239,-6.10214 -8.65625,-11.1875 -1.72603,-6.2082 -8.1432,-13.06374 -8.0625,-8.625 0.0137,0.75468 0.55436,2.03791 1.1875,2.875 1.35563,1.7923 1.5074,5.3923 0.3125,7.625 -1.24022,2.31736 -5.49543,3.8125 -10.90625,3.8125 -3.5027,0 -4.88624,0.32099 -5.21875,1.1875 -0.59661,1.5548 -2.625,1.50392 -2.625,-0.0625 0,-0.67522 0.36609,-1.91587 0.8125,-2.75 0.69818,-1.30455 1.69069,-1.53125 7.0625,-1.53125 5.2617,0 6.48191,-0.2319 7.84375,-1.59375 0.88901,-0.889 1.48774,-2.20934 1.34375,-2.9375 -0.22175,-1.12132 -1.08502,-1.27856 -5.71875,-1.0625 -3.00903,0.14032 -7.12854,-0.13281 -9.15625,-0.59375 -5.73291,-1.30317 -7.30533,-0.32069 -10.5,6.59375 -1.57931,3.4182 -3.20516,5.875 -3.875,5.875 -1.70008,0 -1.4397,-1.19074 1.625,-7.5625 3.77971,-7.85835 5.43091,-8.68941 14.5,-7.40625 7.68462,1.08727 8.90445,0.81632 10.1875,-2.28125 1.73324,-4.18441 -0.54626,-4.98758 -6.59375,-2.3125 -3.0795,1.36281 -4.90678,1.57595 -12.03125,1.375 l -8.46875,-0.21875 -1.6875,3.375 c -0.93896,1.86053 -1.95214,5.65619 -2.25,8.4375 -0.55235,5.15751 -1.39904,6.66346 -2.90625,5.15625 -1.49186,-1.49186 1.3261,-13.2479 4.125,-17.21875 2.78266,-3.94779 6.2353,-14.09601 6.25,-18.34375 0.0127,-3.69389 -1.34274,-6.71856 -3.3125,-7.34375 -2.44899,-0.77727 -3.78599,1.37724 -4.53125,7.3125 -0.67977,5.41366 -2.37591,10.76578 -4.4375,14 -0.7796,1.22303 -1.0374,4.77281 -0.9375,13.71875 0.0741,6.6391 0.0541,12.41251 -0.0625,12.84375 -0.64977,2.40239 0.30782,3.63338 4.1875,5.46875 2.30564,1.09075 5.22007,1.96875 6.53125,1.96875 1.31117,0 7.23592,1.24065 13.125,2.75 5.88908,1.50935 11.4516,2.75 12.375,2.75 2.91457,0 8.4375,3.1338 8.4375,4.78125 0,1.7675 -1.17655,1.8632 -4.03125,0.3125 -1.14288,-0.62081 -6.12912,-1.97972 -11.09375,-3.03125 -4.96463,-1.05153 -9.67637,-2.27033 -10.46875,-2.6875 -0.79237,-0.41717 -3.75942,-0.98875 -6.5625,-1.28125 -5.74702,-0.5997 -14.58047,-4.39723 -15.1875,-6.53125 -0.21031,-0.73961 -0.33955,-5.60634 -0.28125,-10.78125 0.10396,-9.2406 0.0918,-9.4837 -2.375,-13.78125 -1.38147,-2.4067 -2.52725,-4.888 -2.53125,-5.5 -0.0161,-2.34399 -3.86696,-9.2103 -7.34375,-13.125 -1.99602,-2.24741 -3.625,-4.52812 -3.625,-5.09375 0,-1.99464 2.80404,-3.65625 6.25,-3.65625 4.21441,0 7.42969,2.29734 10.96875,7.8125 3.64094,5.67391 3.97587,5.42102 5.125,-3.40625 0.59105,-4.54032 2.5264,-6.72701 7.28125,-8.28125 1.43269,-0.46831 2.6041,-0.75615 3.59375,-0.78125 z m -0.0937,1.9375 c -0.96414,0.17682 -0.96078,1.7355 0.1875,3.9375 1.434,2.74991 1.50778,7.70354 0.25,12.40625 -0.82609,3.08866 -0.72229,3.7161 0.84375,6.25 1.47012,2.3787 2.24431,2.83621 5.03125,3.09375 4.29489,0.39688 7.59325,-0.11437 9.78125,-1.5 2.15564,-1.36514 2.25491,-2.37358 0.28125,-3 -0.81873,-0.25986 -2.9326,-1.5014 -4.65625,-2.75 -2.64828,-1.9184 -3.56797,-3.45516 -6.03125,-9.8125 -1.70557,-4.40183 -3.53382,-7.81432 -4.40625,-8.28125 -0.52159,-0.27916 -0.95986,-0.40265 -1.28125,-0.34375 z m -27,4.375 c -0.88847,-0.014 -1.66532,0.29826 -2.625,1 -1.43744,1.05108 -1.34724,1.28788 2.125,5 3.80477,4.0676 6.05268,7.86362 7.71875,13.125 0.54623,1.72497 1.17708,3.44795 1.40625,3.84375 0.48562,0.83872 4.09375,-6.95029 4.09375,-8.84375 0,-2.14171 -6.94542,-11.72745 -9.40625,-13 -1.42995,-0.73945 -2.42403,-1.111 -3.3125,-1.125 z"
       id="path3038-7"
       inkscape:connector-curvature="0"
       inkscape:export-filename="/home/herpiko/reason-easy.png"
       inkscape:export-xdpi="96.050003"
       inkscape:export-ydpi="96.050003" />
  </g>
</svg>
